<?xml version="1.0" encoding="UTF-8" standalone="no"?>
<!-- Created with Inkscape (http://www.inkscape.org/) -->

<svg
   width="1024"
   height="1024"
   viewBox="0 0 270.93333 270.93334"
   version="1.1"
   id="svg13"
   inkscape:version="1.1.1 (3bf5ae0d25, 2021-09-20)"
   sodipodi:docname="RCRalph Logo Blue.svg"
   inkscape:export-filename="/home/rcralph/Pictures/Logo/RCRalph Logo V2 Blue.png"
   inkscape:export-xdpi="96"
   inkscape:export-ydpi="96"
   xmlns:inkscape="http://www.inkscape.org/namespaces/inkscape"
   xmlns:sodipodi="http://sodipodi.sourceforge.net/DTD/sodipodi-0.dtd"
   xmlns:xlink="http://www.w3.org/1999/xlink"
   xmlns="http://www.w3.org/2000/svg"
   xmlns:svg="http://www.w3.org/2000/svg">
  <sodipodi:namedview
     id="namedview15"
     pagecolor="#ffffff"
     bordercolor="#999999"
     borderopacity="1"
     inkscape:pageshadow="0"
     inkscape:pageopacity="0"
     inkscape:pagecheckerboard="false"
     inkscape:document-units="mm"
     showgrid="false"
     units="px"
     width="1024px"
     inkscape:zoom="0.74742565"
     inkscape:cx="246.8473"
     inkscape:cy="555.23917"
     inkscape:window-width="1920"
     inkscape:window-height="1011"
     inkscape:window-x="0"
     inkscape:window-y="32"
     inkscape:window-maximized="1"
     inkscape:current-layer="layer1" />
  <defs
     id="defs10">
    <linearGradient
       inkscape:collect="always"
       id="linearGradient14820">
      <stop
         style="stop-color:#00aaff;stop-opacity:1"
         offset="0"
         id="stop14816" />
      <stop
         style="stop-color:#0091d9;stop-opacity:1"
         offset="1"
         id="stop14818" />
    </linearGradient>
    <linearGradient
       id="linearGradient11705"
       inkscape:swatch="solid">
      <stop
         style="stop-color:#000000;stop-opacity:1;"
         offset="0"
         id="stop11703" />
    </linearGradient>
    <radialGradient
       inkscape:collect="always"
       xlink:href="#linearGradient14820"
       id="radialGradient14822"
       cx="135.46667"
       cy="135.46667"
       fx="135.46667"
       fy="135.46667"
       r="129.90503"
       gradientTransform="matrix(1,0,0,1.0002863,0,-0.03878184)"
       gradientUnits="userSpaceOnUse" />
  </defs>
  <g
     inkscape:groupmode="layer"
     id="layer3"
     inkscape:label="Layer 2">
    <rect
       style="fill:#ffffff;fill-opacity:1;stroke-width:0.135;stroke-miterlimit:4;stroke-dasharray:none"
       id="rect16926"
       width="163.97668"
       height="98.733986"
       x="53.847229"
       y="85.860886" />
  </g>
  <g
     inkscape:label="Layer 1"
     inkscape:groupmode="layer"
     id="layer1">
    <path
       style="fill:url(#radialGradient14822);stroke-width:0.135;fill-opacity:1;stroke-miterlimit:4;stroke-dasharray:none"
       d="m 133.88148,265.36932 c -6.04659,-0.31385 -12.15334,-2.77946 -16.8656,-6.80956 -1.32594,-1.13399 -102.327332,-102.0903 -103.983202,-103.93679 -3.1460304,-3.5082 -5.2686808,-7.32795 -6.4654208,-11.63465 -1.66449,-5.99004 -1.24982,-12.61593 1.1483,-18.34827 1.2983004,-3.10339 2.9339608,-5.64202 5.4162908,-8.4064 1.75387,-1.95314 102.319352,-102.493496 103.748562,-103.722639 6.56023,-5.6418865 15.07963,-8.0221085 23.51516,-6.5698655 4.93746,0.850025 9.78011,3.165875 13.73818,6.5698655 1.45739,1.253382 101.88446,101.653169 103.68306,103.654909 3.93597,4.38049 6.12399,8.75066 7.22761,14.43586 0.40823,2.10298 0.44128,7.14303 0.0612,9.33854 -0.75872,4.38308 -2.37049,8.26183 -5.00996,12.05653 -1.02177,1.46899 -4.09104,4.56531 -53.79372,54.26797 -49.55694,49.55696 -52.80329,52.77515 -54.26797,53.79704 -1.98943,1.38803 -3.62106,2.3011 -5.64025,3.15633 -3.86279,1.63607 -8.16969,2.37653 -12.51228,2.15113 z m 53.0352,-86.53675 c 7.02053,-1.04487 13.46644,-4.3071 19.14752,-9.69041 1.73946,-1.6483 4.35165,-4.93884 4.83054,-6.085 0.38929,-0.93167 0.21485,-2.01937 -0.45989,-2.86758 -0.49853,-0.62672 -12.24216,-11.86994 -12.74764,-12.20445 -0.43332,-0.28677 -0.76102,-0.37791 -1.53806,-0.42778 -1.20473,-0.0773 -1.48601,0.0471 -3.00101,1.32763 -3.19178,2.69775 -7.40292,4.7847 -10.69149,5.29848 -1.16911,0.18265 -3.37527,0.0723 -4.48077,-0.22413 -1.95816,-0.52505 -4.44866,-2.13944 -6.31647,-4.09445 -3.67585,-3.84747 -5.06083,-8.51859 -4.81036,-16.22376 0.22967,-7.06453 1.66387,-11.75868 4.54263,-14.8681 1.4706,-1.58841 3.03066,-2.56141 4.95117,-3.08799 1.5459,-0.42387 3.89371,-0.33341 5.35836,0.20646 3.50256,1.29102 6.57005,4.40506 8.54048,8.67004 0.73345,1.58754 1.14019,2.16468 1.86295,2.64342 0.48301,0.31993 0.76504,0.4079 1.30769,0.4079 1.23344,0 15.33233,-1.99562 15.85664,-2.24441 0.59338,-0.28158 1.24554,-1.04955 1.43014,-1.68412 0.2449,-0.8418 0.66835,-13.15161 0.70341,-20.44777 l 0.0336,-7.000694 -0.37795,-0.572791 c -0.56867,-0.86182 -1.55508,-1.368491 -3.75378,-1.928151 -3.37343,-0.858675 -12.11925,-1.852051 -13.07253,-1.484815 -1.15406,0.44458 -1.83333,1.239233 -2.30265,2.693781 -0.4412,1.367346 -1.55811,2.165089 -2.83052,2.02167 -0.32901,-0.03708 -1.32033,-0.404771 -2.20292,-0.81708 -6.58012,-3.073953 -14.22238,-3.132359 -21.92471,-0.167565 -6.70492,2.580871 -12.5067,7.244845 -16.37936,13.167135 -4.42007,6.75945 -6.71309,15.49248 -6.71563,25.57681 -0.003,13.46681 4.18929,24.65477 12.29001,32.79524 6.89196,6.92577 15.19223,10.68888 25.63858,11.62379 1.32958,0.119 5.42538,-0.0603 7.112,-0.31131 z m -57.26332,-0.82891 c 2.99997,-0.1456 3.43974,-0.24866 4.19974,-0.98423 0.84616,-0.81897 0.87966,-1.17308 0.64536,-6.82241 -0.27656,-6.66866 -0.26538,-6.59445 -1.11289,-7.38123 -0.78366,-0.72751 -1.18851,-0.83838 -3.29716,-0.90283 -2.20165,-0.0673 -2.68774,-0.21678 -3.33238,-1.02467 -0.2003,-0.25104 -1.10678,-2.00378 -2.01441,-3.89499 -0.90763,-1.89123 -3.09997,-6.41883 -4.87187,-10.06136 -2.75641,-5.66642 -3.23172,-6.73406 -3.29151,-7.39339 -0.10107,-1.11459 0.23575,-1.78577 1.40016,-2.79016 4.14099,-3.57186 6.42382,-6.76261 7.76648,-10.8553 0.87875,-2.67862 1.55991,-6.46826 1.71185,-9.52397 0.21341,-4.29183 -1.04903,-9.26027 -3.19685,-12.5815 -0.92854,-1.43584 -2.96411,-3.55372 -4.3497,-4.525604 -3.69853,-2.594217 -9.52043,-4.506035 -16.41887,-5.391697 -1.96822,-0.252692 -3.2714,-0.292492 -12.891432,-0.393717 -5.88602,-0.06193 -14.72522,-0.133295 -19.64266,-0.15858 l -8.9408,-0.04597 -0.62425,0.366982 c -0.70619,0.41515 -0.98502,0.777392 -1.1868,1.541798 -0.0769,0.291291 -0.23535,3.566362 -0.35214,7.277938 l -0.21233,6.74832 0.28062,0.63461 c 0.66148,1.49592 1.4584,1.91439 3.65366,1.91858 0.85732,0.002 1.76552,0.0623 2.01823,0.13475 0.7695,0.22069 1.35632,0.71125 1.71144,1.43069 l 0.33659,0.68194 -0.0354,22.48287 -0.0354,22.48286 -0.29682,0.55469 c -0.67839,1.26777 -1.39163,1.58025 -4.16815,1.82613 -2.33625,0.2069 -3.34117,0.82231 -3.73038,2.2845 -0.18317,0.68811 -0.0396,3.4539 0.42221,8.13328 0.29336,2.97246 0.49695,3.72929 1.17897,4.38255 0.84846,0.81268 0.15153,0.77059 15.23477,0.91989 12.84947,0.12719 13.87171,0.12067 14.42805,-0.0918 0.76104,-0.29064 1.45213,-0.8963 1.83133,-1.60495 0.2929,-0.54737 0.29625,-0.62271 0.25331,-5.70243 -0.0239,-2.83125 -0.1027,-5.37713 -0.17504,-5.65751 -0.16152,-0.6261 -0.81125,-1.38824 -1.46195,-1.71492 -0.26783,-0.13447 -0.89896,-0.32075 -1.40251,-0.41398 -1.10681,-0.2049 -1.86951,-0.7121 -2.27958,-1.51591 -0.2264,-0.44377 -0.31499,-0.95631 -0.40421,-2.33861 -0.2242,-3.47341 -0.0544,-10.13814 0.2935,-11.51978 0.0805,-0.31953 0.32372,-0.79623 0.54057,-1.0593 0.66159,-0.80263 1.26947,-0.99796 4.09323,-1.31524 2.34792,-0.26382 2.60299,-0.26998 3.26097,-0.0787 1.28024,0.37218 1.36042,0.50099 4.822292,7.74762 2.97588,6.22933 3.16735,6.67654 3.22428,7.53108 0.10503,1.5764 -0.45307,2.36019 -2.15568,3.02743 -1.06922,0.41903 -1.671388,0.88712 -2.048278,1.5922 -0.299714,0.56071 -0.303544,0.6355 -0.303544,5.91882 v 5.35093 l 0.375554,0.63888 c 0.4299,0.73133 1.093838,1.28697 1.747438,1.46238 0.56377,0.15131 7.04586,0.52046 11.62687,0.66214 5.09898,0.1577 14.03373,0.16336 17.17561,0.0108 z M 89.514988,126.28644 c -0.68802,-0.32518 -1.3651,-1.09111 -1.54856,-1.75175 -0.18116,-0.65234 -0.19016,-8.88776 -0.0109,-9.98234 0.1661,-1.01432 0.63346,-1.72238 1.456,-2.20587 0.5895,-0.34652 0.78528,-0.38422 2.2207,-0.42764 0.86581,-0.0262 2.5848,0.0178 3.81998,0.0977 2.67431,0.17309 4.002404,0.53908 5.223272,1.4394 1.37505,1.01402 1.91752,2.10823 2.0151,4.06461 0.11026,2.21086 -0.64735,4.10433 -2.33017,5.82366 -1.937312,1.97936 -4.515942,2.89158 -8.819772,3.12012 -1.27976,0.068 -1.55691,0.0436 -2.02564,-0.17793 z"
       id="path687" />
  </g>
</svg>
